<?xml version="1.0"?>
<svg xmlns="http://www.w3.org/2000/svg" width="240" height="40" viewBox="0 0 240 40" fill="none">
<path fill-rule="evenodd" clip-rule="evenodd" d="M84.8774 20.1102C84.8774 12.9658 90.3505 9.5921 99.0898 9.5921C107.873 9.5921 113.324 12.9879 113.324 20.1102C113.324 27.2325 107.873 30.6504 99.0898 30.6504C90.3284 30.6504 84.8774 27.2546 84.8774 20.1102ZM92.0498 20.0882C92.0498 23.8808 94.7201 25.3803 99.0898 25.3803C103.437 25.3803 106.152 23.9029 106.152 20.0882C106.152 16.2734 103.437 14.8181 99.0898 14.8181C94.7201 14.8181 92.0498 16.2734 92.0498 20.0882Z" fill="white"/>
<path d="M136.784 13.6494V10.0772H114.626V15.215H126.544L114.45 26.571V30.1212H136.85V24.9613H124.822L136.784 13.6494Z" fill="white"/>
<path d="M158.058 22.0948H146.295V25.1598H160.552V30.1212H139.697V10.0772H160.066V15.1268H146.295V18.0816H158.058V22.0948Z" fill="white"/>
<path d="M162.251 15.215H170.571V30.1212H177.413V15.215H185.733V10.0772H162.251V15.215Z" fill="white"/>
<path fill-rule="evenodd" clip-rule="evenodd" d="M230.665 10.0772H221.749L212.392 30.1212H219.851L221.462 26.1962H230.908L232.519 30.1212H240L230.665 10.0772ZM223.117 22.183L226.207 14.6858L229.275 22.183H223.117Z" fill="white"/>
<path fill-rule="evenodd" clip-rule="evenodd" d="M82.8469 17.3319C82.8469 13.0981 80.1324 10.0772 73.6662 10.0772H59.6745V30.1212H66.4276V24.4542H70.7752L75.6303 30.1212H84.0607L78.411 23.6163C81.2359 22.3814 82.8469 19.7795 82.8469 17.3319ZM66.4276 14.796H73.0704C75.1228 14.796 75.9393 15.8986 75.9393 17.3098C75.9393 18.258 75.3655 20 72.96 20H66.4276V14.796Z" fill="white"/>
<path d="M194.913 17.398L203.211 10.0772H211.995L202.35 18.258L211.664 30.1212H203.233L197.451 22.4255L194.913 24.5865V30.1212H188.16V10.0772H194.913V17.398Z" fill="white"/>
<path d="M38.4699 21.8154C38.4297 31.8878 30.216 40.0101 20.1547 39.9699C10.0934 39.9296 1.95998 31.727 2.00015 21.6546C2.04031 11.5822 10.254 3.45994 20.3153 3.50015C30.3967 3.54036 38.51 11.743 38.4699 21.8154Z" fill="#221F1F"/>
<path d="M12.9121 15.6891C12.673 16.7863 11.9651 17.5631 11.3314 17.4241C10.9044 17.3311 10.6193 16.8452 10.5528 16.2032C10.5274 15.9629 10.5327 15.7009 10.5728 15.4288C10.859 15.4853 11.1558 15.3363 11.276 15.0571C11.4091 14.7473 11.2766 14.3899 10.9792 14.2403C11.3078 13.6819 11.7689 13.358 12.1971 13.4517C12.4651 13.51 12.6771 13.7226 12.8143 14.0318C13.0016 14.4535 13.0499 15.0554 12.9121 15.6891ZM13.4451 12.8592C13.2148 11.8585 12.7584 11.1094 12.1365 10.8108C12.0257 10.7578 11.9097 10.7189 11.789 10.6954C10.6299 10.4704 9.3778 11.7325 8.67401 13.6702C8.51028 14.1213 8.376 14.6089 8.28 15.1231C8.02027 16.5136 8.08741 17.8276 8.40545 18.8182C8.70993 19.7676 9.24529 20.4189 9.94438 20.555C10.1393 20.5927 10.3372 20.5886 10.5345 20.5462C11.2183 20.3989 11.8967 19.7923 12.4433 18.8865C12.8938 18.1397 13.2543 17.1897 13.4533 16.1273C13.6771 14.9282 13.6583 13.7862 13.4451 12.8592" fill="#05BC52"/>
<path d="M9.26118 30.5884C8.61864 29.6378 8.05678 28.6719 7.59092 27.7431C7.27112 28.0099 6.86709 28.2084 6.54612 28.4157C6.05846 28.7302 5.582 29.1843 5.55314 29.7638C5.53548 30.1207 5.69214 30.4588 5.81582 30.7939C6.0673 31.4747 5.86352 32.2563 5.88237 32.9636C5.88237 32.9724 5.88296 32.9819 5.88355 32.9907C6.27402 33.4913 6.691 33.9707 7.13095 34.4277C7.65217 33.5184 8.94609 33.3476 9.26118 32.3228C9.44317 31.7309 9.34481 31.1526 9.26118 30.5884ZM7.83415 15.0465C7.91484 14.6219 8.02144 14.2137 8.14924 13.8274C7.76996 13.9446 7.39421 14.073 7.03082 14.2461C6.49841 14.4994 6.00958 14.8834 5.73631 15.4058C5.00836 16.7981 5.93007 18.3941 5.24336 19.8129C4.75217 20.8283 3.78511 21.3595 3.62786 22.5539C3.53304 23.2748 3.65201 24.0045 3.74977 24.7253C3.94884 26.1907 3.46354 27.514 3.61549 28.9581C3.62963 29.0901 3.6473 29.222 3.66909 29.3533V29.3539C3.9989 30.0724 4.37406 30.7656 4.79045 31.4306C4.77985 31.3993 4.76807 31.3675 4.75629 31.3363C4.28513 30.1031 3.85049 29.3845 4.45063 28.0694C4.76395 27.3827 5.27398 26.8261 5.5237 26.12C5.85351 25.1877 5.50544 24.0722 5.75162 23.0769C5.93714 22.3271 6.5844 21.9202 7.10444 21.3872C7.64098 20.8365 7.90718 20.1439 8.1675 19.4425C7.6663 18.3264 7.51259 16.7356 7.83415 15.0465M9.26118 30.5884C8.61864 29.6378 8.05678 28.6719 7.59092 27.7431C7.27112 28.0099 6.86709 28.2084 6.54612 28.4157C6.05846 28.7302 5.582 29.1843 5.55314 29.7638C5.53548 30.1207 5.69214 30.4588 5.81582 30.7939C6.0673 31.4747 5.86352 32.2563 5.88237 32.9636C5.88237 32.9724 5.88296 32.9819 5.88355 32.9907C6.27402 33.4913 6.691 33.9707 7.13095 34.4277C7.65217 33.5184 8.94609 33.3476 9.26118 32.3228C9.44317 31.7309 9.34481 31.1526 9.26118 30.5884ZM7.83415 15.0465C7.91484 14.6219 8.02144 14.2137 8.14924 13.8274C7.76996 13.9446 7.39421 14.073 7.03082 14.2461C6.49841 14.4994 6.00958 14.8834 5.73631 15.4058C5.00836 16.7981 5.93007 18.3941 5.24336 19.8129C4.75217 20.8283 3.78511 21.3595 3.62786 22.5539C3.53304 23.2748 3.65201 24.0045 3.74977 24.7253C3.94884 26.1907 3.46354 27.514 3.61549 28.9581C3.62963 29.0901 3.6473 29.222 3.66909 29.3533V29.3539C3.9989 30.0724 4.37406 30.7656 4.79045 31.4306C4.77985 31.3993 4.76807 31.3675 4.75629 31.3363C4.28513 30.1031 3.85049 29.3845 4.45063 28.0694C4.76395 27.3827 5.27398 26.8261 5.5237 26.12C5.85351 25.1877 5.50544 24.0722 5.75162 23.0769C5.93714 22.3271 6.5844 21.9202 7.10444 21.3872C7.64098 20.8365 7.90718 20.1439 8.1675 19.4425C7.6663 18.3264 7.51259 16.7356 7.83415 15.0465M9.26118 30.5884C8.61864 29.6378 8.05678 28.6719 7.59092 27.7431C7.27112 28.0099 6.86709 28.2084 6.54612 28.4157C6.05846 28.7302 5.582 29.1843 5.55314 29.7638C5.53548 30.1207 5.69214 30.4588 5.81582 30.7939C6.0673 31.4747 5.86352 32.2563 5.88237 32.9636C5.88237 32.9724 5.88296 32.9819 5.88355 32.9907C6.27402 33.4913 6.691 33.9707 7.13095 34.4277C7.65217 33.5184 8.94609 33.3476 9.26118 32.3228C9.44317 31.7309 9.34481 31.1526 9.26118 30.5884ZM7.83415 15.0465C7.91484 14.6219 8.02144 14.2137 8.14924 13.8274C7.76996 13.9446 7.39421 14.073 7.03082 14.2461C6.49841 14.4994 6.00958 14.8834 5.73631 15.4058C5.00836 16.7981 5.93007 18.3941 5.24336 19.8129C4.75217 20.8283 3.78511 21.3595 3.62786 22.5539C3.53304 23.2748 3.65201 24.0045 3.74977 24.7253C3.94884 26.1907 3.46354 27.514 3.61549 28.9581C3.62963 29.0901 3.6473 29.222 3.66909 29.3533V29.3539C3.9989 30.0724 4.37406 30.7656 4.79045 31.4306C4.77985 31.3993 4.76807 31.3675 4.75629 31.3363C4.28513 30.1031 3.85049 29.3845 4.45063 28.0694C4.76395 27.3827 5.27398 26.8261 5.5237 26.12C5.85351 25.1877 5.50544 24.0722 5.75162 23.0769C5.93714 22.3271 6.5844 21.9202 7.10444 21.3872C7.64098 20.8365 7.90718 20.1439 8.1675 19.4425C7.6663 18.3264 7.51259 16.7356 7.83415 15.0465M32.5401 9.72358C32.5177 9.50154 32.4883 9.2795 32.45 9.05806C32.414 8.83602 32.3669 8.61517 32.3139 8.39549C32.2874 8.28477 32.258 8.17522 32.2256 8.06627C32.2203 8.04801 32.215 8.03034 32.2097 8.01208C32.1649 7.97321 32.1202 7.93434 32.0748 7.89606C31.5206 8.9226 30.9923 9.93324 30.5052 11.0087C30.1713 11.7454 30.0553 12.6465 29.5146 13.2538C28.9434 13.8957 28.1571 14.3339 27.4421 14.7933C27.269 14.9046 27.0905 15.0241 26.9126 15.1519C27.0357 16.1638 26.6017 17.5107 25.7371 18.9342C26.0669 17.9082 26.0581 16.9806 25.6293 16.2998C25.5009 16.4529 25.3843 16.6125 25.2848 16.7774C24.7736 17.6238 24.6505 18.7298 24.1752 19.6238C23.5268 20.8447 22.7252 21.4331 21.5202 21.9602C20.7711 22.2877 20.0944 22.8095 19.5107 23.4308C22.4372 22.8024 25.7595 21.6416 29.3945 19.6515H29.3951C30.3557 18.9466 31.5023 18.4183 31.8051 17.2115C32.0271 16.3275 31.7485 15.4394 31.7285 14.5512C31.7073 13.6048 31.9711 12.6813 32.1832 11.7666C32.3422 11.0793 32.6113 10.4274 32.5401 9.72358M32.5401 9.72358C32.5177 9.50154 32.4883 9.2795 32.45 9.05806C32.414 8.83602 32.3669 8.61517 32.3139 8.39549C32.2874 8.28477 32.258 8.17522 32.2256 8.06627C32.2203 8.04801 32.215 8.03034 32.2097 8.01208C32.1649 7.97321 32.1202 7.93434 32.0748 7.89606C31.5206 8.9226 30.9923 9.93324 30.5052 11.0087C30.1713 11.7454 30.0553 12.6465 29.5146 13.2538C28.9434 13.8957 28.1571 14.3339 27.4421 14.7933C27.269 14.9046 27.0905 15.0241 26.9126 15.1519C27.0357 16.1638 26.6017 17.5107 25.7371 18.9342C26.0669 17.9082 26.0581 16.9806 25.6293 16.2998C25.5009 16.4529 25.3843 16.6125 25.2848 16.7774C24.7736 17.6238 24.6505 18.7298 24.1752 19.6238C23.5268 20.8447 22.7252 21.4331 21.5202 21.9602C20.7711 22.2877 20.0944 22.8095 19.5107 23.4308C22.4372 22.8024 25.7595 21.6416 29.3945 19.6515H29.3951C30.3557 18.9466 31.5023 18.4183 31.8051 17.2115C32.0271 16.3275 31.7485 15.4394 31.7285 14.5512C31.7073 13.6048 31.9711 12.6813 32.1832 11.7666C32.3422 11.0793 32.6113 10.4274 32.5401 9.72358M32.5401 9.72358C32.5177 9.50154 32.4883 9.2795 32.45 9.05806C32.414 8.83602 32.3669 8.61517 32.3139 8.39549C32.2874 8.28477 32.258 8.17522 32.2256 8.06627C32.2203 8.04801 32.215 8.03034 32.2097 8.01208C32.1649 7.97321 32.1202 7.93434 32.0748 7.89606C31.5206 8.9226 30.9923 9.93324 30.5052 11.0087C30.1713 11.7454 30.0553 12.6465 29.5146 13.2538C28.9434 13.8957 28.1571 14.3339 27.4421 14.7933C27.269 14.9046 27.0905 15.0241 26.9126 15.1519C27.0357 16.1638 26.6017 17.5107 25.7371 18.9342C26.0669 17.9082 26.0581 16.9806 25.6293 16.2998C25.5009 16.4529 25.3843 16.6125 25.2848 16.7774C24.7736 17.6238 24.6505 18.7298 24.1752 19.6238C23.5268 20.8447 22.7252 21.4331 21.5202 21.9602C20.7711 22.2877 20.0944 22.8095 19.5107 23.4308C22.4372 22.8024 25.7595 21.6416 29.3945 19.6515H29.3951C30.3557 18.9466 31.5023 18.4183 31.8051 17.2115C32.0271 16.3275 31.7485 15.4394 31.7285 14.5512C31.7073 13.6048 31.9711 12.6813 32.1832 11.7666C32.3422 11.0793 32.6113 10.4274 32.5401 9.72358M32.5401 9.72358C32.5177 9.50154 32.4883 9.2795 32.45 9.05806C32.414 8.83602 32.3669 8.61517 32.3139 8.39549C32.2874 8.28477 32.258 8.17522 32.2256 8.06627C32.2203 8.04801 32.215 8.03034 32.2097 8.01208C32.1649 7.97321 32.1202 7.93434 32.0748 7.89606C31.5206 8.9226 30.9923 9.93324 30.5052 11.0087C30.1713 11.7454 30.0553 12.6465 29.5146 13.2538C28.9434 13.8957 28.1571 14.3339 27.4421 14.7933C27.269 14.9046 27.0905 15.0241 26.9126 15.1519C27.0357 16.1638 26.6017 17.5107 25.7371 18.9342C26.0669 17.9082 26.0581 16.9806 25.6293 16.2998C25.5009 16.4529 25.3843 16.6125 25.2848 16.7774C24.7736 17.6238 24.6505 18.7298 24.1752 19.6238C23.5268 20.8447 22.7252 21.4331 21.5202 21.9602C20.7711 22.2877 20.0944 22.8095 19.5107 23.4308C22.4372 22.8024 25.7595 21.6416 29.3945 19.6515H29.3951C30.3557 18.9466 31.5023 18.4183 31.8051 17.2115C32.0271 16.3275 31.7485 15.4394 31.7285 14.5512C31.7073 13.6048 31.9711 12.6813 32.1832 11.7666C32.3422 11.0793 32.6113 10.4274 32.5401 9.72358M32.5401 9.72358C32.5177 9.50154 32.4883 9.2795 32.45 9.05806C32.414 8.83602 32.3669 8.61517 32.3139 8.39549C32.2874 8.28477 32.258 8.17522 32.2256 8.06627C32.2203 8.04801 32.215 8.03034 32.2097 8.01208C32.1649 7.97321 32.1202 7.93434 32.0748 7.89606C31.5206 8.9226 30.9923 9.93324 30.5052 11.0087C30.1713 11.7454 30.0553 12.6465 29.5146 13.2538C28.9434 13.8957 28.1571 14.3339 27.4421 14.7933C27.269 14.9046 27.0905 15.0241 26.9126 15.1519C27.0357 16.1638 26.6017 17.5107 25.7371 18.9342C26.0669 17.9082 26.0581 16.9806 25.6293 16.2998C25.5009 16.4529 25.3843 16.6125 25.2848 16.7774C24.7736 17.6238 24.6505 18.7298 24.1752 19.6238C23.5268 20.8447 22.7252 21.4331 21.5202 21.9602C20.7711 22.2877 20.0944 22.8095 19.5107 23.4308C22.4372 22.8024 25.7595 21.6416 29.3945 19.6515H29.3951C30.3557 18.9466 31.5023 18.4183 31.8051 17.2115C32.0271 16.3275 31.7485 15.4394 31.7285 14.5512C31.7073 13.6048 31.9711 12.6813 32.1832 11.7666C32.3422 11.0793 32.6113 10.4274 32.5401 9.72358M26.7725 32.5531C24.793 35.6875 22.4413 38.0439 19.8582 37.9938C19.4159 37.9856 18.9777 37.9385 18.5454 37.8572C17.3245 37.6287 16.1448 37.1257 15.0311 36.4325C14.4722 36.0856 13.9292 35.6899 13.4062 35.2564C12.6265 34.6121 11.8897 33.8847 11.2053 33.1091C10.4968 32.3069 9.84542 31.4541 9.26118 30.5884C8.61864 29.6378 8.05678 28.6719 7.59092 27.7431C6.56437 25.6983 5.99957 23.8319 6.04786 22.6917C6.04786 22.6917 7.06734 23.1947 8.93667 23.5934C10.425 23.9108 12.4527 24.1623 14.9334 24.0398C16.3221 23.9721 17.8528 23.7871 19.5107 23.4308C22.4372 22.8024 25.7595 21.6416 29.3945 19.6515H29.3951C30.5865 18.9996 31.8115 18.2581 33.0672 17.417C33.0672 17.417 32.8016 18.4006 32.3069 19.9378C31.3021 23.061 29.3538 28.4681 26.7725 32.5531ZM11.8891 10.2542C12.0499 10.2848 12.203 10.3373 12.3485 10.4091H12.3491C12.9586 10.7101 13.4327 11.3561 13.7272 12.2166C14.0965 13.2956 14.1831 14.7114 13.8992 16.2038C13.7384 17.0501 13.4757 17.8293 13.1435 18.5037C12.438 19.936 11.4191 20.8948 10.3955 21.015C10.2118 21.0367 10.0274 21.0309 9.84483 20.9961C9.12396 20.8589 8.5462 20.2864 8.1675 19.4425C7.6663 18.3264 7.51259 16.7356 7.83415 15.0465C7.91484 14.6219 8.02144 14.2137 8.14924 13.8274C8.91547 11.5158 10.4532 9.98036 11.8891 10.2542M21.6963 10.1694C20.8023 10.458 19.9683 10.8773 19.2692 11.3532C20.6403 9.32898 24.6022 5.99728 27.0893 8.22116C27.7183 8.78361 28.2531 9.70178 28.6277 11.0858C28.729 11.461 28.8191 11.8697 28.8956 12.3156C28.6948 12.0064 28.4798 11.729 28.2525 11.4822C26.4568 9.53217 23.896 9.45737 21.6963 10.1694ZM25.7371 18.9342C26.0669 17.9082 26.0581 16.9806 25.6293 16.2998C25.6211 16.2863 25.6122 16.2727 25.6034 16.2592C25.051 15.4252 23.9543 15.1254 22.6033 15.3086H22.6027C21.0891 15.5136 19.2569 16.3257 17.5153 17.6727C16.788 18.2357 16.1425 18.8453 15.583 19.4719C16.2685 18.5408 17.1166 17.6037 18.1049 16.7286C20.3152 14.7721 22.664 13.6036 24.386 13.4534C25.3496 13.3686 26.117 13.603 26.5546 14.1955C26.7513 14.4623 26.8685 14.785 26.9126 15.1519C27.0357 16.1638 26.6017 17.5107 25.7371 18.9342M33.3999 9.14758C33.3999 9.14699 33.3988 9.1464 33.3988 9.1464C33.1202 8.85487 32.8316 8.57276 32.533 8.30126C32.533 8.30126 32.533 8.30067 32.5324 8.30067C32.4547 8.22882 32.3763 8.15873 32.2968 8.08924L32.2962 8.08865C32.2674 8.06273 32.2385 8.03741 32.2097 8.01208C32.1649 7.97321 32.1202 7.93434 32.0748 7.89606C32.0418 7.86779 32.0088 7.83952 31.9753 7.81184C31.9128 7.75883 31.8504 7.707 31.7874 7.65518C31.7232 7.60276 31.659 7.55093 31.5936 7.49852L31.593 7.49793C31.4788 7.40664 31.3634 7.31712 31.2462 7.22878C30.4917 6.65514 29.6901 6.13981 28.8491 5.68867C28.8485 5.68808 28.8485 5.68749 28.8479 5.68808C28.0876 5.27994 27.2955 4.92362 26.4751 4.62561C25.617 4.31229 24.7288 4.06316 23.8159 3.88118C23.8154 3.88059 23.8148 3.88059 23.8142 3.88059C22.6828 3.65502 21.5137 3.53487 20.317 3.52898C18.2333 3.51897 16.2326 3.86645 14.3656 4.5037C14.5329 4.81643 14.6795 5.15272 14.8079 5.49726C15.0677 6.19694 15.2514 6.93018 15.381 7.5633C15.5094 8.19112 15.5848 8.72177 15.6283 9.02508C15.4263 8.62518 15.1407 8.19643 14.7767 7.80595C14.2378 7.2276 13.5275 6.73347 12.6636 6.54029C11.4945 6.2788 10.0427 6.56797 8.35066 7.94494C5.46775 10.2925 2.44996 14.5088 2.04594 20.3488C2.0159 20.7835 2 21.2276 2 21.6805C2 24.4185 2.5972 27.0181 3.66909 29.3533V29.3539C3.9989 30.0724 4.37406 30.7656 4.79045 31.4306C5.12792 31.97 5.49307 32.4907 5.88355 32.9907C6.27402 33.4913 6.691 33.9707 7.13095 34.4277C7.26346 34.5644 7.39774 34.6998 7.53379 34.8323C7.9007 35.1904 8.28293 35.5332 8.6793 35.8589C9.00145 36.1251 9.33303 36.3795 9.67345 36.6222L9.67404 36.6228C10.2948 37.0662 10.9444 37.4714 11.6199 37.8354C13.8603 39.0428 16.3828 39.7931 19.0678 39.9627C19.4265 39.9857 19.7875 39.998 20.1515 39.9998C30.2237 40.0463 38.4249 31.92 38.4708 21.8483C38.4932 16.9217 36.5597 12.4434 33.3999 9.14758M32.5401 9.72358C32.5177 9.50154 32.4883 9.2795 32.45 9.05806C32.414 8.83602 32.3669 8.61517 32.3139 8.39549C32.2874 8.28477 32.258 8.17522 32.2256 8.06627C32.2203 8.04801 32.215 8.03034 32.2097 8.01208C32.1649 7.97321 32.1202 7.93434 32.0748 7.89606C31.5206 8.9226 30.9923 9.93324 30.5052 11.0087C30.1713 11.7454 30.0553 12.6465 29.5146 13.2538C28.9434 13.8957 28.1571 14.3339 27.4421 14.7933C27.269 14.9046 27.0905 15.0241 26.9126 15.1519C27.0357 16.1638 26.6017 17.5107 25.7371 18.9342C26.0669 17.9082 26.0581 16.9806 25.6293 16.2998C25.5009 16.4529 25.3843 16.6125 25.2848 16.7774C24.7736 17.6238 24.6505 18.7298 24.1752 19.6238C23.5268 20.8447 22.7252 21.4331 21.5202 21.9602C20.7711 22.2877 20.0944 22.8095 19.5107 23.4308C22.4372 22.8024 25.7595 21.6416 29.3945 19.6515H29.3951C30.3557 18.9466 31.5023 18.4183 31.8051 17.2115C32.0271 16.3275 31.7485 15.4394 31.7285 14.5512C31.7073 13.6048 31.9711 12.6813 32.1832 11.7666C32.3422 11.0793 32.6113 10.4274 32.5401 9.72358M32.5401 9.72358C32.5177 9.50154 32.4883 9.2795 32.45 9.05806C32.414 8.83602 32.3669 8.61517 32.3139 8.39549C32.2874 8.28477 32.258 8.17522 32.2256 8.06627C32.2203 8.04801 32.215 8.03034 32.2097 8.01208C32.1649 7.97321 32.1202 7.93434 32.0748 7.89606C31.5206 8.9226 30.9923 9.93324 30.5052 11.0087C30.1713 11.7454 30.0553 12.6465 29.5146 13.2538C28.9434 13.8957 28.1571 14.3339 27.4421 14.7933C27.269 14.9046 27.0905 15.0241 26.9126 15.1519C27.0357 16.1638 26.6017 17.5107 25.7371 18.9342C26.0669 17.9082 26.0581 16.9806 25.6293 16.2998C25.5009 16.4529 25.3843 16.6125 25.2848 16.7774C24.7736 17.6238 24.6505 18.7298 24.1752 19.6238C23.5268 20.8447 22.7252 21.4331 21.5202 21.9602C20.7711 22.2877 20.0944 22.8095 19.5107 23.4308C22.4372 22.8024 25.7595 21.6416 29.3945 19.6515H29.3951C30.3557 18.9466 31.5023 18.4183 31.8051 17.2115C32.0271 16.3275 31.7485 15.4394 31.7285 14.5512C31.7073 13.6048 31.9711 12.6813 32.1832 11.7666C32.3422 11.0793 32.6113 10.4274 32.5401 9.72358M32.5401 9.72358C32.5177 9.50154 32.4883 9.2795 32.45 9.05806C32.414 8.83602 32.3669 8.61517 32.3139 8.39549C32.2874 8.28477 32.258 8.17522 32.2256 8.06627C32.2203 8.04801 32.215 8.03034 32.2097 8.01208C32.1649 7.97321 32.1202 7.93434 32.0748 7.89606C31.5206 8.9226 30.9923 9.93324 30.5052 11.0087C30.1713 11.7454 30.0553 12.6465 29.5146 13.2538C28.9434 13.8957 28.1571 14.3339 27.4421 14.7933C27.269 14.9046 27.0905 15.0241 26.9126 15.1519C27.0357 16.1638 26.6017 17.5107 25.7371 18.9342C26.0669 17.9082 26.0581 16.9806 25.6293 16.2998C25.5009 16.4529 25.3843 16.6125 25.2848 16.7774C24.7736 17.6238 24.6505 18.7298 24.1752 19.6238C23.5268 20.8447 22.7252 21.4331 21.5202 21.9602C20.7711 22.2877 20.0944 22.8095 19.5107 23.4308C22.4372 22.8024 25.7595 21.6416 29.3945 19.6515H29.3951C30.3557 18.9466 31.5023 18.4183 31.8051 17.2115C32.0271 16.3275 31.7485 15.4394 31.7285 14.5512C31.7073 13.6048 31.9711 12.6813 32.1832 11.7666C32.3422 11.0793 32.6113 10.4274 32.5401 9.72358M32.5401 9.72358C32.5177 9.50154 32.4883 9.2795 32.45 9.05806C32.414 8.83602 32.3669 8.61517 32.3139 8.39549C32.2874 8.28477 32.258 8.17522 32.2256 8.06627C32.2203 8.04801 32.215 8.03034 32.2097 8.01208C32.1649 7.97321 32.1202 7.93434 32.0748 7.89606C31.5206 8.9226 30.9923 9.93324 30.5052 11.0087C30.1713 11.7454 30.0553 12.6465 29.5146 13.2538C28.9434 13.8957 28.1571 14.3339 27.4421 14.7933C27.269 14.9046 27.0905 15.0241 26.9126 15.1519C27.0357 16.1638 26.6017 17.5107 25.7371 18.9342C26.0669 17.9082 26.0581 16.9806 25.6293 16.2998C25.5009 16.4529 25.3843 16.6125 25.2848 16.7774C24.7736 17.6238 24.6505 18.7298 24.1752 19.6238C23.5268 20.8447 22.7252 21.4331 21.5202 21.9602C20.7711 22.2877 20.0944 22.8095 19.5107 23.4308C22.4372 22.8024 25.7595 21.6416 29.3945 19.6515H29.3951C30.3557 18.9466 31.5023 18.4183 31.8051 17.2115C32.0271 16.3275 31.7485 15.4394 31.7285 14.5512C31.7073 13.6048 31.9711 12.6813 32.1832 11.7666C32.3422 11.0793 32.6113 10.4274 32.5401 9.72358M32.5401 9.72358C32.5177 9.50154 32.4883 9.2795 32.45 9.05806C32.414 8.83602 32.3669 8.61517 32.3139 8.39549C32.2874 8.28477 32.258 8.17522 32.2256 8.06627C32.2203 8.04801 32.215 8.03034 32.2097 8.01208C32.1649 7.97321 32.1202 7.93434 32.0748 7.89606C31.5206 8.9226 30.9923 9.93324 30.5052 11.0087C30.1713 11.7454 30.0553 12.6465 29.5146 13.2538C28.9434 13.8957 28.1571 14.3339 27.4421 14.7933C27.269 14.9046 27.0905 15.0241 26.9126 15.1519C27.0357 16.1638 26.6017 17.5107 25.7371 18.9342C26.0669 17.9082 26.0581 16.9806 25.6293 16.2998C25.5009 16.4529 25.3843 16.6125 25.2848 16.7774C24.7736 17.6238 24.6505 18.7298 24.1752 19.6238C23.5268 20.8447 22.7252 21.4331 21.5202 21.9602C20.7711 22.2877 20.0944 22.8095 19.5107 23.4308C22.4372 22.8024 25.7595 21.6416 29.3945 19.6515H29.3951C30.3557 18.9466 31.5023 18.4183 31.8051 17.2115C32.0271 16.3275 31.7485 15.4394 31.7285 14.5512C31.7073 13.6048 31.9711 12.6813 32.1832 11.7666C32.3422 11.0793 32.6113 10.4274 32.5401 9.72358M7.83415 15.0465C7.91484 14.6219 8.02144 14.2137 8.14924 13.8274C7.76996 13.9446 7.39421 14.073 7.03082 14.2461C6.49841 14.4994 6.00958 14.8834 5.73631 15.4058C5.00836 16.7981 5.93007 18.3941 5.24336 19.8129C4.75217 20.8283 3.78511 21.3595 3.62786 22.5539C3.53304 23.2748 3.65201 24.0045 3.74977 24.7253C3.94884 26.1907 3.46354 27.514 3.61549 28.9581C3.62963 29.0901 3.6473 29.222 3.66909 29.3533V29.3539C3.9989 30.0724 4.37406 30.7656 4.79045 31.4306C4.77985 31.3993 4.76807 31.3675 4.75629 31.3363C4.28513 30.1031 3.85049 29.3845 4.45063 28.0694C4.76395 27.3827 5.27398 26.8261 5.5237 26.12C5.85351 25.1877 5.50544 24.0722 5.75162 23.0769C5.93714 22.3271 6.5844 21.9202 7.10444 21.3872C7.64098 20.8365 7.90718 20.1439 8.1675 19.4425C7.6663 18.3264 7.51259 16.7356 7.83415 15.0465M9.26118 30.5884C8.61864 29.6378 8.05678 28.6719 7.59092 27.7431C7.27112 28.0099 6.86709 28.2084 6.54612 28.4157C6.05846 28.7302 5.582 29.1843 5.55314 29.7638C5.53548 30.1207 5.69214 30.4588 5.81582 30.7939C6.0673 31.4747 5.86352 32.2563 5.88237 32.9636C5.88237 32.9724 5.88296 32.9819 5.88355 32.9907C6.27402 33.4913 6.691 33.9707 7.13095 34.4277C7.65217 33.5184 8.94609 33.3476 9.26118 32.3228C9.44317 31.7309 9.34481 31.1526 9.26118 30.5884ZM7.83415 15.0465C7.91484 14.6219 8.02144 14.2137 8.14924 13.8274C7.76996 13.9446 7.39421 14.073 7.03082 14.2461C6.49841 14.4994 6.00958 14.8834 5.73631 15.4058C5.00836 16.7981 5.93007 18.3941 5.24336 19.8129C4.75217 20.8283 3.78511 21.3595 3.62786 22.5539C3.53304 23.2748 3.65201 24.0045 3.74977 24.7253C3.94884 26.1907 3.46354 27.514 3.61549 28.9581C3.62963 29.0901 3.6473 29.222 3.66909 29.3533V29.3539C3.9989 30.0724 4.37406 30.7656 4.79045 31.4306C4.77985 31.3993 4.76807 31.3675 4.75629 31.3363C4.28513 30.1031 3.85049 29.3845 4.45063 28.0694C4.76395 27.3827 5.27398 26.8261 5.5237 26.12C5.85351 25.1877 5.50544 24.0722 5.75162 23.0769C5.93714 22.3271 6.5844 21.9202 7.10444 21.3872C7.64098 20.8365 7.90718 20.1439 8.1675 19.4425C7.6663 18.3264 7.51259 16.7356 7.83415 15.0465M9.26118 30.5884C8.61864 29.6378 8.05678 28.6719 7.59092 27.7431C7.27112 28.0099 6.86709 28.2084 6.54612 28.4157C6.05846 28.7302 5.582 29.1843 5.55314 29.7638C5.53548 30.1207 5.69214 30.4588 5.81582 30.7939C6.0673 31.4747 5.86352 32.2563 5.88237 32.9636C5.88237 32.9724 5.88296 32.9819 5.88355 32.9907C6.27402 33.4913 6.691 33.9707 7.13095 34.4277C7.65217 33.5184 8.94609 33.3476 9.26118 32.3228C9.44317 31.7309 9.34481 31.1526 9.26118 30.5884ZM7.83415 15.0465C7.91484 14.6219 8.02144 14.2137 8.14924 13.8274C7.76996 13.9446 7.39421 14.073 7.03082 14.2461C6.49841 14.4994 6.00958 14.8834 5.73631 15.4058C5.00836 16.7981 5.93007 18.3941 5.24336 19.8129C4.75217 20.8283 3.78511 21.3595 3.62786 22.5539C3.53304 23.2748 3.65201 24.0045 3.74977 24.7253C3.94884 26.1907 3.46354 27.514 3.61549 28.9581C3.62963 29.0901 3.6473 29.222 3.66909 29.3533V29.3539C3.9989 30.0724 4.37406 30.7656 4.79045 31.4306C4.77985 31.3993 4.76807 31.3675 4.75629 31.3363C4.28513 30.1031 3.85049 29.3845 4.45063 28.0694C4.76395 27.3827 5.27398 26.8261 5.5237 26.12C5.85351 25.1877 5.50544 24.0722 5.75162 23.0769C5.93714 22.3271 6.5844 21.9202 7.10444 21.3872C7.64098 20.8365 7.90718 20.1439 8.1675 19.4425C7.6663 18.3264 7.51259 16.7356 7.83415 15.0465M9.26118 30.5884C8.61864 29.6378 8.05678 28.6719 7.59092 27.7431C7.27112 28.0099 6.86709 28.2084 6.54612 28.4157C6.05846 28.7302 5.582 29.1843 5.55314 29.7638C5.53548 30.1207 5.69214 30.4588 5.81582 30.7939C6.0673 31.4747 5.86352 32.2563 5.88237 32.9636C5.88237 32.9724 5.88296 32.9819 5.88355 32.9907C6.27402 33.4913 6.691 33.9707 7.13095 34.4277C7.65217 33.5184 8.94609 33.3476 9.26118 32.3228C9.44317 31.7309 9.34481 31.1526 9.26118 30.5884Z" fill="#05BC52"/>
<path d="M26.9768 31.0519C25.9915 32.8199 24.8861 34.4283 23.6858 35.5909C22.4749 36.7641 21.1668 37.4838 19.7869 37.4573C19.5837 37.4532 19.3817 37.4408 19.1809 37.4196C17.8987 37.2853 16.6614 36.8112 15.4982 36.111C15.3133 35.9996 15.1301 35.8824 14.9493 35.7605C15.3745 35.0326 17.543 31.8564 23.2788 31.1514C24.3766 31.0159 25.6052 30.9712 26.9768 31.0519Z" fill="#05BC52"/>
<path d="M36.4366 21.2653C36.3836 22.1234 36.5449 22.9897 36.4525 23.8384C36.3229 25.024 35.6633 25.8968 34.8458 26.719C34.3564 27.2107 33.8381 27.7143 33.5113 28.335C33.2197 28.8898 33.1932 29.4988 32.9918 30.083C32.7391 30.8163 32.3763 31.5118 31.914 32.135C31.1572 33.1538 30.1955 33.5797 29.0199 33.9784C28.4268 34.1792 27.766 34.4348 27.3443 34.9219C26.9969 35.3229 26.8231 35.8577 26.5086 36.2906C25.8402 37.2111 24.8937 37.9102 23.7618 38.1211C22.4937 38.3572 21.254 38.4279 20.1468 39.1841C19.7781 39.4356 19.4347 39.7212 19.0678 39.9627C16.3828 39.7931 13.8603 39.0428 11.6199 37.8354C11.6871 37.8454 11.7542 37.8543 11.8219 37.8619C13.2596 38.0251 14.7196 37.912 16.1478 38.1652C16.3598 38.2029 16.5765 38.2383 16.798 38.2701C17.4564 38.329 18.0307 38.1676 18.5454 37.8572C18.9777 37.9385 19.4159 37.9856 19.8582 37.9938C22.4413 38.0439 24.793 35.6875 26.7725 32.5531C26.8897 32.4683 27.011 32.39 27.137 32.3187C27.938 31.8664 28.9734 31.9765 29.7002 31.3711C30.388 30.798 30.7261 29.7644 30.8934 28.9157C31.0229 28.2608 31.0942 27.5871 31.3422 26.9669C31.8269 25.7531 33.1632 25.458 33.8611 24.4073C34.5973 23.2989 34.175 22.0851 34.4124 20.8607C34.6697 19.529 35.1291 18.2357 35.2434 16.877C35.3806 15.2474 35.0048 13.6071 34.3935 12.09C33.993 11.0982 33.4942 10.1512 32.9618 9.22238C32.7444 8.84251 32.5212 8.46499 32.2968 8.08924C32.3763 8.15874 32.4547 8.22883 32.5324 8.30068C32.533 8.30068 32.533 8.30127 32.533 8.30127C32.8316 8.57277 33.1202 8.85488 33.3988 9.14641C33.3988 9.14641 33.3999 9.147 33.3999 9.14759C34.519 10.4916 35.4242 12.014 36.0756 13.6372C36.6792 15.1419 37.2529 16.8363 36.9802 18.4766C36.8247 19.4107 36.4955 20.3153 36.4366 21.2653Z" fill="#2C9342"/>
<path d="M13.4062 35.2564C13.9292 35.6899 14.4722 36.0856 15.0311 36.4325C14.6142 36.687 14.1571 36.876 13.6495 36.9761C12.3702 37.2288 11.2259 36.6769 9.97616 36.6369C9.87545 36.6334 9.77474 36.6286 9.67403 36.6228L9.67344 36.6222C9.33303 36.3795 9.00145 36.1251 8.67929 35.8589C8.8012 35.8524 8.92253 35.8436 9.04385 35.8336C9.26471 35.8129 9.4838 35.7859 9.7023 35.7558C10.442 35.6528 10.9791 35.5697 11.7306 35.5797C12.3019 35.5874 12.9044 35.5326 13.4062 35.2564" fill="#2C9342"/>
<path d="M33.6055 16.5301C33.5914 17.3852 33.427 18.2639 33.0224 19.0243C32.8363 19.3741 32.5848 19.6674 32.3069 19.9377C32.8016 18.4006 33.0672 17.417 33.0672 17.417C31.8115 18.2581 30.5865 18.9995 29.3951 19.6515C30.3557 18.9465 31.5023 18.4182 31.8051 17.2115C32.0271 16.3275 31.7485 15.4393 31.7285 14.5512C31.7073 13.6047 31.9712 12.6813 32.1832 11.7666C32.3422 11.0793 32.6113 10.4274 32.5401 9.72356C32.5177 9.50152 32.4883 9.27949 32.45 9.05804C32.414 8.83601 32.3669 8.61515 32.3139 8.39547C32.2874 8.28475 32.258 8.17521 32.2256 8.06625C32.2203 8.04799 32.215 8.03032 32.2097 8.01207C32.2385 8.03739 32.2674 8.06272 32.2963 8.08863L32.2968 8.08922C32.3764 8.15871 32.4547 8.2288 32.5324 8.30065C32.533 8.30065 32.533 8.30124 32.533 8.30124C32.5342 8.3036 32.5354 8.30536 32.5365 8.30772C32.6502 8.51267 32.7509 8.72411 32.8457 8.93966C32.8858 9.03331 32.9247 9.12754 32.9618 9.22236C33.0107 9.34663 33.056 9.47208 33.0996 9.5987C33.2786 9.9774 33.2604 10.3372 33.3416 10.726C33.5749 11.8444 33.1591 13.0947 33.258 14.2408C33.3252 15.0118 33.6179 15.7503 33.6055 16.5301Z" fill="#2C9342"/>
<path d="M14.7767 7.80596C14.7596 7.8142 14.7426 7.82245 14.7255 7.83128C13.5794 8.40845 12.9463 9.32427 12.3491 10.4091H12.3485C12.203 10.3373 12.0499 10.2849 11.8891 10.2542C10.4532 9.98036 8.91547 11.5158 8.14924 13.8274C7.76996 13.9446 7.39421 14.073 7.03082 14.2461C6.49841 14.4994 6.00958 14.8834 5.73631 15.4058C5.00836 16.7981 5.93007 18.3941 5.24336 19.8129C4.75217 20.8283 3.78511 21.3595 3.62786 22.5539C3.53304 23.2748 3.65201 24.0045 3.74978 24.7254C3.94884 26.1907 3.46354 27.514 3.61549 28.9581C3.62963 29.0901 3.6473 29.222 3.66909 29.3533C2.5972 27.0181 2 24.4185 2 21.6805C2 21.2276 2.0159 20.7835 2.04594 20.3489C2.10189 20.234 2.15961 20.1215 2.21732 20.012C2.43818 19.5932 3.07955 18.9572 3.16436 18.549C3.55837 16.6491 3.44941 14.6195 5.03251 13.229C5.9978 12.3803 7.34238 12.3014 8.26998 11.3903C9.3454 10.3343 10.3407 9.19588 11.2436 7.98971C11.6841 7.40135 12.1553 6.92371 12.6636 6.5403C13.5275 6.73348 14.2378 7.22761 14.7767 7.80596Z" fill="#2C9342"/>
<path d="M31.2461 7.22877C31.3633 7.31711 31.4788 7.40663 31.593 7.49792C31.5059 7.45846 31.4193 7.42018 31.3315 7.38307C31.0653 7.26941 30.8003 7.15868 30.5323 7.05856C30.2655 6.9555 29.9987 6.85773 29.7302 6.76762L29.3279 6.63452C29.2355 6.60448 29.143 6.57503 29.0499 6.54676H29.0494C29.0081 6.53381 28.9669 6.52144 28.9257 6.50907C28.6571 6.42956 28.3868 6.35712 28.1194 6.28527C26.7507 5.6651 25.3148 5.25343 23.8713 5.25578C22.0986 5.25814 20.7805 6.70696 19.0778 7.03913C17.8192 7.28472 16.5795 7.17694 15.381 7.56329C15.2514 6.93017 15.0676 6.19693 14.8079 5.49725C15.4994 5.30761 16.2485 5.21043 17.0654 5.18393C19.238 5.11384 21.1939 3.86645 23.3925 3.86586C23.5362 3.86586 23.6769 3.87116 23.8142 3.88058C23.8148 3.88058 23.8153 3.88058 23.8159 3.88117C24.7288 4.06315 25.6169 4.31228 26.475 4.6256C27.0369 4.87296 27.5958 5.148 28.193 5.39831C28.3697 5.47252 28.5458 5.54908 28.7201 5.62859C28.7625 5.64802 28.8055 5.66746 28.8479 5.68807C28.8485 5.68748 28.8485 5.68807 28.8491 5.68866C29.6901 6.1398 30.4917 6.65513 31.2461 7.22877Z" fill="#2C9342"/>
<path d="M10.3955 21.015C10.2924 21.4366 10.2253 21.8719 10.0392 22.2659C9.7883 22.7959 9.34835 23.1917 8.93667 23.5934C7.06734 23.1947 6.04786 22.6917 6.04786 22.6917C5.99957 23.8319 6.56437 25.6983 7.59092 27.7431C7.27112 28.0099 6.8671 28.2084 6.54612 28.4157C6.05847 28.7302 5.582 29.1843 5.55315 29.7638C5.53548 30.1207 5.69214 30.4588 5.81582 30.7939C6.0673 31.4747 5.86352 32.2563 5.88237 32.9636C5.88237 32.9724 5.88296 32.9819 5.88355 32.9907C5.49307 32.4907 5.12792 31.97 4.79045 31.4306C4.77985 31.3993 4.76807 31.3675 4.75629 31.3363C4.28513 30.1031 3.85049 29.3845 4.45063 28.0694C4.76395 27.3827 5.27398 26.8261 5.5237 26.12C5.85351 25.1877 5.50544 24.0722 5.75162 23.0769C5.93714 22.3271 6.5844 21.9202 7.10444 21.3872C7.64098 20.8365 7.90718 20.1439 8.1675 19.4425C8.5462 20.2864 9.12396 20.8589 9.84483 20.9961C10.0274 21.0309 10.2118 21.0367 10.3955 21.015Z" fill="#2C9342"/>
<path d="M31.5936 7.49852C31.659 7.55093 31.7232 7.60276 31.7874 7.65518C31.7856 7.65459 31.7839 7.65459 31.7821 7.654C31.6661 7.62573 31.5495 7.59923 31.4329 7.57744C31.1996 7.5315 30.9664 7.49439 30.7332 7.46789C29.9493 7.37012 29.1577 7.2223 28.451 7.62455C27.9981 7.88192 27.5517 8.07981 27.0893 8.22116C24.6022 5.99728 20.6403 9.32898 19.2692 11.3532C19.9683 10.8773 20.8023 10.458 21.6963 10.1694C21.2546 10.6906 20.8547 11.2448 20.3134 11.6636C19.3293 12.4251 18.1638 12.2696 17.1178 12.8921C16.0347 13.5364 15.338 14.6672 14.8768 15.8104C14.5164 16.7062 14.1672 17.7469 13.3709 18.347C13.2979 18.4018 13.2219 18.4542 13.1436 18.5037C13.4757 17.8293 13.7384 17.0501 13.8992 16.2038C14.1831 14.7114 14.0965 13.2956 13.7272 12.2166C13.9752 11.7189 14.3032 11.2507 14.7867 10.9934C15.4929 10.6182 16.3651 10.4462 17.1031 10.114C18.5566 9.45972 19.9189 8.62754 21.2193 7.70877C21.605 7.43668 21.959 7.19815 22.4708 7.08625C22.5915 7.05327 22.7122 7.02618 22.8336 7.00262C23.896 6.80473 24.7324 7.0621 25.7506 7.17224C26.6847 7.27413 27.4244 6.67987 28.3091 6.55325C28.5576 6.51732 28.8044 6.51909 29.0494 6.54677H29.05C29.6548 6.61509 30.2461 6.84125 30.8092 7.05327C30.9564 7.10863 31.1025 7.16635 31.2462 7.22878C31.3634 7.31712 31.4788 7.40664 31.593 7.49793L31.5936 7.49852Z" fill="#2C9342"/>
<path d="M11.2053 33.1091C11.1953 33.1244 11.1853 33.1391 11.1747 33.1538C10.3307 34.3576 8.65516 34.0643 7.53379 34.8323C7.39775 34.6998 7.26347 34.5644 7.13095 34.4277C7.65217 33.5184 8.9461 33.3476 9.26119 32.3228C9.44317 31.7309 9.34482 31.1526 9.26119 30.5884C9.84543 31.4541 10.4968 32.3069 11.2053 33.1091Z" fill="#2C9342"/>
<path d="M25.6293 16.2998C25.5009 16.4529 25.3843 16.6125 25.2848 16.7774C24.7736 17.6238 24.6505 18.7298 24.1752 19.6238C23.5268 20.8447 22.7252 21.4331 21.5202 21.9602C20.7711 22.2877 20.0944 22.8095 19.5107 23.4308C17.8528 23.7871 16.3221 23.9721 14.9334 24.0398C14.9846 23.6847 15.0205 23.3283 15.0694 22.9856C15.2273 21.8748 15.7903 21.0073 16.7273 20.373C17.8734 19.5973 19.2604 19.4784 20.3052 18.562C20.4642 18.4383 20.6191 18.3105 20.7658 18.1738C21.0591 17.9006 21.3223 17.5925 21.5249 17.2144C21.9207 16.5772 22.2222 15.9252 22.6027 15.3086H22.6033C23.9543 15.1254 25.051 15.4252 25.6034 16.2592C25.6122 16.2727 25.6211 16.2862 25.6293 16.2998Z" fill="#2C9342"/>
<path d="M31.9753 7.81185C32.0088 7.83953 32.0418 7.8678 32.0748 7.89607C31.5206 8.92261 30.9923 9.93325 30.5053 11.0087C30.1713 11.7455 30.0553 12.6465 29.5146 13.2538C28.9434 13.8957 28.1571 14.3339 27.4421 14.7933C27.269 14.9046 27.0905 15.0241 26.9126 15.1519C26.8685 14.785 26.7513 14.4623 26.5546 14.1955C26.117 13.603 25.3496 13.3686 24.386 13.4534C25.3343 12.8786 26.4509 12.5547 27.4539 12.0759C27.7407 11.9009 28.0275 11.726 28.2466 11.4881C28.2484 11.4863 28.2507 11.4845 28.2525 11.4822C28.4798 11.729 28.6948 12.0064 28.8956 12.3156C28.8191 11.8697 28.729 11.461 28.6277 11.0858C28.6389 11.0735 28.6489 11.0611 28.6595 11.0487C29.3097 10.2748 29.8009 9.32781 30.6419 8.76595L31.1272 8.40786C31.4075 8.20703 31.6867 8.00502 31.9753 7.81185Z" fill="#2C9342"/>
<path d="M30.8625 0.976557C30.9661 1.07179 31.0026 1.23452 31.068 1.35596C31.1319 1.47469 31.1775 1.60361 31.2045 1.73566C31.2888 2.14834 31.1587 2.66985 30.6855 2.76638C30.5274 2.7996 30.3558 2.77734 30.2129 2.70707C29.9643 2.58699 29.8667 2.3143 29.9022 2.05228C29.9263 1.87412 30.0342 1.70539 30.1628 1.55968C30.2389 1.47334 30.3223 1.39512 30.4 1.32775C30.4514 1.28311 30.8337 0.950055 30.8625 0.976557ZM31.8979 8.61155C32.1049 8.73375 32.3246 8.84701 32.5737 8.87298C33.3613 8.95514 33.3676 8.38445 33.1911 7.85834C33.0775 7.51987 33.069 7.12085 33.2551 6.761C33.4212 6.43991 33.6677 6.1628 33.8886 5.87239C34.3311 5.29051 34.627 4.49578 34.6827 3.80682C34.7168 3.52159 34.7001 3.24143 34.6682 2.97151C34.6432 2.83906 34.628 2.7033 34.5885 2.57733C34.571 2.51354 34.5543 2.44941 34.5355 2.38645L34.4674 2.20328C34.2812 1.71811 33.9867 1.29942 33.6218 0.96154C33.2561 0.624424 32.8052 0.380009 32.3087 0.251382L32.1183 0.214336L32.0232 0.196079C31.99 0.190837 31.9522 0.18701 31.9172 0.183712C31.7751 0.173169 31.6368 0.179707 31.5005 0.195667C31.3329 0.216045 31.1683 0.251971 31.0059 0.298734C30.9254 0.237542 30.8393 0.18271 30.7472 0.136536C30.6353 0.0837659 30.5162 0.0420098 30.39 0.0192174C30.1371 -0.0241883 29.8631 0.00673122 29.6104 0.103437C29.356 0.19655 29.1226 0.344731 28.9114 0.514113C28.7006 0.684909 28.5106 0.879027 28.3391 1.08587C28.2526 1.18876 28.1712 1.29547 28.0941 1.40467C28.0149 1.51303 27.947 1.62888 27.8731 1.73077C27.7248 1.93749 27.5443 2.1279 27.3268 2.24151C27.2186 2.29964 27.1044 2.33232 26.9906 2.33515C26.8769 2.33851 26.7667 2.31124 26.6652 2.2666C26.4624 2.17443 26.2944 2.01853 26.1512 1.84508C26.0082 1.67028 25.8869 1.47463 25.7898 1.26556L25.7462 1.29017C25.8388 1.5062 25.9556 1.70862 26.0966 1.89238C26.2382 2.0746 26.4052 2.24198 26.62 2.34805C26.7276 2.39935 26.8482 2.43386 26.9777 2.43374C27.1061 2.43474 27.2422 2.39882 27.3629 2.33757C27.6091 2.21618 27.8206 2.04486 27.9826 1.83012C28.0658 1.72052 28.1572 1.62758 28.2361 1.52505C28.3133 1.42104 28.3762 1.34789 28.4617 1.25089C28.7818 0.884976 29.183 0.528602 29.6635 0.401152C29.7757 0.371352 29.8909 0.347322 30.0073 0.345378C30.0658 0.344377 30.1241 0.349442 30.181 0.363047C30.2629 0.382659 30.3525 0.432308 30.4219 0.479188C30.4312 0.485549 30.4491 0.508577 30.4628 0.502157C29.9016 0.76589 29.3583 1.19724 29.2773 1.84073C29.188 2.55029 29.6618 3.25015 30.4118 3.23047C30.8798 3.21817 31.3743 2.97387 31.6033 2.5586C31.8832 2.05104 31.7794 1.38364 31.5211 0.888627C31.4963 0.840981 31.4676 0.795809 31.4373 0.752226C31.4498 0.751048 31.4626 0.748928 31.475 0.747985C31.5828 0.739799 31.6884 0.740211 31.7844 0.751814C31.8084 0.755465 31.8299 0.75841 31.8549 0.763475L31.9322 0.782616L32.0869 0.82025L32.2353 0.873903L32.3095 0.900288C32.3337 0.910242 32.3568 0.922668 32.3805 0.933682L32.5218 1.00106C32.5677 1.02562 32.6109 1.05465 32.6557 1.08098C32.7473 1.13057 32.8263 1.199 32.9103 1.25931C32.9521 1.28976 32.9878 1.32816 33.0269 1.36191C33.0641 1.39795 33.1056 1.42917 33.1385 1.46975C33.2074 1.54755 33.2799 1.62134 33.3387 1.70768C33.3689 1.75003 33.4029 1.78919 33.4301 1.83366L33.5117 1.96688C33.5408 2.00993 33.5631 2.05752 33.5861 2.10452C33.6089 2.15163 33.6338 2.1974 33.6548 2.24528L33.7102 2.39304L33.738 2.46655L33.7589 2.54305L33.8013 2.69524L33.8302 2.85166C33.8543 2.95426 33.8549 3.06286 33.8674 3.16757C33.8715 3.38148 33.8632 3.59533 33.8162 3.80765C33.7797 4.01979 33.7042 4.22963 33.6212 4.43382C33.5688 4.53371 33.5279 4.63607 33.4617 4.72959C33.4318 4.77736 33.4011 4.82435 33.3692 4.87047C33.3343 4.91541 33.2989 4.95964 33.263 5.00316L33.2102 5.06836L33.1507 5.1292L33.0333 5.24905C32.6218 5.66956 32.2303 6.07381 31.6574 5.98765C31.2772 5.93052 30.9602 5.74447 30.5626 5.72733C30.3166 5.71673 29.8132 5.60036 29.6201 5.87763C29.5973 5.91026 29.5805 5.9443 29.5688 5.97952C29.3987 6.49391 30.164 7.15849 30.4411 7.45072C30.8695 7.90257 31.3595 8.29363 31.8979 8.61155" fill="#2C9342"/>
</svg>
